<svg width="32" height="32" viewBox="0 0 32 32" fill="none" xmlns="http://www.w3.org/2000/svg">
<path d="M17.3688 2.66602C18.8688 2.67002 19.6302 2.67802 20.2875 2.69668L20.5462 2.70602C20.8448 2.71668 21.1395 2.73002 21.4955 2.74602C22.9142 2.81268 23.8822 3.03668 24.7315 3.36602C25.6115 3.70468 26.3528 4.16335 27.0942 4.90335C27.7724 5.56966 28.2971 6.37598 28.6315 7.26602C28.9608 8.11535 29.1848 9.08335 29.2515 10.5033C29.2675 10.858 29.2808 11.1527 29.2915 11.4527L29.2995 11.7113C29.3195 12.3673 29.3275 13.1287 29.3302 14.6287L29.3315 15.6234V17.37C29.3347 18.3426 29.3245 19.3151 29.3008 20.2873L29.2928 20.546C29.2822 20.846 29.2688 21.1407 29.2528 21.4953C29.1862 22.9153 28.9595 23.882 28.6315 24.7327C28.2971 25.6227 27.7724 26.429 27.0942 27.0954C26.4278 27.7736 25.6215 28.2983 24.7315 28.6327C23.8822 28.962 22.9142 29.186 21.4955 29.2527L20.5462 29.2927L20.2875 29.3007C19.6302 29.3193 18.8688 29.3287 17.3688 29.3314L16.3742 29.3327H14.6288C13.6558 29.3361 12.6829 29.3259 11.7102 29.302L11.4515 29.294C11.135 29.282 10.8185 29.2683 10.5022 29.2527C9.08349 29.186 8.11549 28.962 7.26482 28.6327C6.37526 28.2981 5.56941 27.7734 4.90349 27.0954C4.22475 26.4292 3.69963 25.6228 3.36482 24.7327C3.03549 23.8833 2.81149 22.9153 2.74482 21.4953L2.70482 20.546L2.69815 20.2873C2.67358 19.3151 2.66246 18.3426 2.66482 17.37V14.6287C2.66113 13.6561 2.67091 12.6836 2.69415 11.7113L2.70349 11.4527C2.71415 11.1527 2.72749 10.858 2.74349 10.5033C2.81015 9.08335 3.03415 8.11668 3.36349 7.26602C3.69908 6.37561 4.22512 5.56926 4.90482 4.90335C5.57036 4.22541 6.37574 3.70078 7.26482 3.36602C8.11549 3.03668 9.08215 2.81268 10.5022 2.74602C10.8568 2.73002 11.1528 2.71668 11.4515 2.70602L11.7102 2.69802C12.6824 2.67433 13.6549 2.6641 14.6275 2.66735L17.3688 2.66602ZM15.9982 9.33268C14.23 9.33268 12.5344 10.0351 11.2841 11.2853C10.0339 12.5355 9.33149 14.2312 9.33149 15.9993C9.33149 17.7675 10.0339 19.4632 11.2841 20.7134C12.5344 21.9636 14.23 22.666 15.9982 22.666C17.7663 22.666 19.462 21.9636 20.7122 20.7134C21.9624 19.4632 22.6648 17.7675 22.6648 15.9993C22.6648 14.2312 21.9624 12.5355 20.7122 11.2853C19.462 10.0351 17.7663 9.33268 15.9982 9.33268ZM15.9982 11.9993C16.5234 11.9993 17.0436 12.1026 17.5289 12.3036C18.0143 12.5045 18.4553 12.7991 18.8268 13.1705C19.1983 13.5418 19.493 13.9827 19.6941 14.468C19.8952 14.9533 19.9987 15.4734 19.9988 15.9987C19.9989 16.524 19.8955 17.0441 19.6946 17.5295C19.4937 18.0148 19.1991 18.4558 18.8277 18.8273C18.4563 19.1988 18.0154 19.4935 17.5302 19.6946C17.0449 19.8957 16.5248 19.9993 15.9995 19.9993C14.9386 19.9993 13.9212 19.5779 13.1711 18.8278C12.4209 18.0776 11.9995 17.0602 11.9995 15.9993C11.9995 14.9385 12.4209 13.9211 13.1711 13.1709C13.9212 12.4208 14.9386 11.9993 15.9995 11.9993M22.9995 7.33268C22.5575 7.33268 22.1335 7.50828 21.821 7.82084C21.5084 8.1334 21.3328 8.55732 21.3328 8.99935C21.3328 9.44138 21.5084 9.8653 21.821 10.1779C22.1335 10.4904 22.5575 10.666 22.9995 10.666C23.4415 10.666 23.8654 10.4904 24.178 10.1779C24.4906 9.8653 24.6662 9.44138 24.6662 8.99935C24.6662 8.55732 24.4906 8.1334 24.178 7.82084C23.8654 7.50828 23.4415 7.33268 22.9995 7.33268Z" fill="#140E0A"/>
</svg>
