<svg width="32" height="32" viewBox="0 0 32 32" fill="none" xmlns="http://www.w3.org/2000/svg">
<path d="M16.0052 2.66602C23.3692 2.66602 29.3386 8.63535 29.3386 15.9993C29.3386 23.3633 23.3692 29.3327 16.0052 29.3327C13.6489 29.3367 11.334 28.7131 9.29856 27.526L2.67723 29.3327L4.4799 22.7087C3.29184 20.6726 2.66777 18.3567 2.6719 15.9993C2.6719 8.63535 8.64123 2.66602 16.0052 2.66602ZM11.4612 9.73268L11.1946 9.74335C11.0222 9.75523 10.8537 9.80051 10.6986 9.87668C10.554 9.9587 10.422 10.0611 10.3066 10.1807C10.1466 10.3313 10.0559 10.462 9.95856 10.5887C9.46539 11.2299 9.19986 12.0171 9.2039 12.826C9.20656 13.4793 9.37723 14.1153 9.6439 14.71C10.1892 15.9127 11.0866 17.186 12.2706 18.366C12.5559 18.65 12.8359 18.9354 13.1372 19.2007C14.6085 20.4959 16.3616 21.43 18.2572 21.9287L19.0146 22.0447C19.2612 22.058 19.5079 22.0393 19.7559 22.0273C20.1441 22.0069 20.5232 21.9018 20.8666 21.7194C21.041 21.6291 21.2114 21.5313 21.3772 21.426C21.3772 21.426 21.4337 21.3878 21.5439 21.306C21.7239 21.1727 21.8346 21.078 21.9839 20.922C22.0959 20.8065 22.1892 20.6722 22.2639 20.5194C22.3679 20.302 22.4719 19.8873 22.5146 19.542C22.5466 19.278 22.5372 19.134 22.5332 19.0447C22.5279 18.902 22.4092 18.754 22.2799 18.6913L21.5039 18.3433C21.5039 18.3433 20.3439 17.838 19.6346 17.5153C19.5603 17.483 19.4808 17.4645 19.3999 17.4607C19.3087 17.4511 19.2164 17.4613 19.1295 17.4905C19.0425 17.5198 18.9629 17.5673 18.8959 17.63C18.8892 17.6273 18.7999 17.7034 17.8359 18.8713C17.7806 18.9457 17.7044 19.0019 17.617 19.0328C17.5296 19.0636 17.435 19.0678 17.3452 19.0447C17.2583 19.0215 17.1732 18.9921 17.0906 18.9567C16.9252 18.8874 16.8679 18.8607 16.7546 18.8127C15.9891 18.4792 15.2805 18.028 14.6546 17.4753C14.4866 17.3287 14.3306 17.1687 14.1706 17.014C13.646 16.5116 13.1889 15.9433 12.8106 15.3233L12.7319 15.1967C12.6762 15.1111 12.6306 15.0194 12.5959 14.9233C12.5452 14.7273 12.6772 14.57 12.6772 14.57C12.6772 14.57 13.0012 14.2153 13.1519 14.0233C13.2986 13.8367 13.4226 13.6553 13.5026 13.526C13.6599 13.2727 13.7092 13.0127 13.6266 12.8113C13.2532 11.8993 12.8675 10.9922 12.4692 10.09C12.3906 9.91135 12.1572 9.78335 11.9452 9.75802C11.8732 9.74913 11.8012 9.74202 11.7292 9.73668C11.5502 9.72641 11.3707 9.7282 11.1919 9.74202L11.4612 9.73268Z" fill="#140E0A"/>
</svg>
